<?xml version="1.0" encoding="UTF-8" standalone="no"?>
<!DOCTYPE svg PUBLIC "-//W3C//DTD SVG 1.1//EN" "http://www.w3.org/Graphics/SVG/1.1/DTD/svg11.dtd">
<svg width="100%" height="100%" viewBox="0 0 1920 177" version="1.1" xmlns="http://www.w3.org/2000/svg" xmlns:xlink="http://www.w3.org/1999/xlink" xml:space="preserve" xmlns:serif="http://www.serif.com/" style="fill-rule:evenodd;clip-rule:evenodd;stroke-linejoin:round;stroke-miterlimit:2;">
    <g transform="matrix(1,0,0,1,0,-903.991)">
        <g transform="matrix(1,0,0,-1,0,1080)">
            <path d="M1920,22L1920,0L0,0L0,36C0,36 24.4,78.029 58.981,73.884C104.793,68.394 190.959,84.033 238.51,94C315.32,110.1 447.917,76.947 614.528,76.768C777.649,76.592 837.623,117.723 1022.75,102.374C1202.03,87.51 1515.67,88.528 1658.88,86.631C1723.88,85.77 1808.16,73.885 1849.11,59.884C1916.52,36.834 1920,22 1920,22Z" style="fill:rgb(22,22,22);"/>
        </g>
        <g transform="matrix(1,0,0,-1,0,1058)">
            <path d="M1920,49.903L1920,0L0,0L0,57C0,57 19.4,79.108 53.981,74.964C99.793,69.473 234.959,57.033 282.51,67C359.32,83.1 434.917,103.947 601.528,103.768C764.649,103.592 774.868,46.251 960,30.903C1139.28,16.039 1375.67,100.528 1518.88,98.631C1583.88,97.77 1753.98,49.373 1793.11,30.903C1816.52,19.853 1920,49.903 1920,49.903Z" style="fill:rgb(22,22,22);fill-opacity:0.89;"/>
        </g>
        <g transform="matrix(1,0,0,-1,0,1058)">
            <path d="M1920,30.903L1920,0L0,0L0,57C0,57 49.4,112.108 83.981,107.964C129.793,102.473 184.959,83.801 217.51,103.769C284.407,144.804 418.917,83.985 585.528,83.805C748.649,83.629 685.868,119.118 871,103.769C921.171,99.609 986.493,79.667 1085.98,74.472C1176.74,69.733 1206.45,99.259 1263.69,103.769C1313.27,107.674 1390.41,97.91 1448.06,103.769C1511.63,110.228 1561.24,140.012 1594.88,130.666C1661.45,112.168 1749.17,163.759 1819,152.34C1869.97,144.005 1920,30.903 1920,30.903Z" style="fill:rgb(22,22,22);fill-opacity:0.49;"/>
        </g>
    </g>
</svg>
