<?xml version="1.0" encoding="UTF-8" standalone="no"?>
<!DOCTYPE svg PUBLIC "-//W3C//DTD SVG 1.1//EN" "http://www.w3.org/Graphics/SVG/1.1/DTD/svg11.dtd">
<svg width="100%" height="100%" viewBox="0 0 251 251" version="1.1" xmlns="http://www.w3.org/2000/svg" xmlns:xlink="http://www.w3.org/1999/xlink" xml:space="preserve" xmlns:serif="http://www.serif.com/" style="fill-rule:evenodd;clip-rule:evenodd;stroke-linejoin:round;stroke-miterlimit:2;">
    <g transform="matrix(1,0,0,1,-409.933,-574.945)">
        <g id="monogram" serif:id="Mixed Monogram Sha" transform="matrix(12.5,0,0,12.4985,-1432.06,-13649.6)">
            <g id="S" transform="matrix(0.999844,0,0,0.999844,24.9619,86.0181)">
                <path d="M127.423,1072.26L132.358,1072.26C133.031,1072.26 133.689,1072.13 134.299,1071.88C134.908,1071.62 135.469,1071.25 135.944,1070.78C136.42,1070.3 136.791,1069.74 137.043,1069.13C137.296,1068.52 137.429,1067.86 137.429,1067.19C137.429,1067.19 137.429,1067.18 137.429,1067.18C137.429,1065.82 136.877,1064.58 135.985,1063.69C135.093,1062.8 133.861,1062.25 132.5,1062.25C132.5,1062.25 132.423,1062.25 132.423,1062.25C131.043,1062.25 129.795,1061.69 128.891,1060.79C127.987,1059.88 127.429,1058.63 127.429,1057.25C127.429,1057.25 127.429,1057.25 127.429,1057.25C127.429,1055.88 127.987,1054.63 128.891,1053.72C129.795,1052.82 131.043,1052.26 132.423,1052.26L137.423,1052.26L137.423,1052.25L132.423,1052.25C131.041,1052.25 129.789,1052.81 128.884,1053.71C127.978,1054.62 127.418,1055.87 127.418,1057.25L127.418,1057.25C127.418,1058.64 127.978,1059.89 128.884,1060.79C129.789,1061.7 131.041,1062.26 132.423,1062.26C132.423,1062.26 132.5,1062.26 132.5,1062.26C133.858,1062.26 135.088,1062.81 135.978,1063.7C136.868,1064.59 137.418,1065.82 137.419,1067.18C137.419,1067.18 137.419,1067.19 137.419,1067.19C137.419,1067.86 137.285,1068.52 137.034,1069.13C136.782,1069.74 136.411,1070.3 135.937,1070.77C135.462,1071.24 134.903,1071.62 134.295,1071.87C133.686,1072.12 133.029,1072.25 132.358,1072.25C132.358,1072.25 127.423,1072.25 127.423,1072.25L127.423,1072.26Z"/>
            </g>
            <g id="H" transform="matrix(0.5,0,0,0.5,71.5648,600.066)">
                <path d="M151.61,1106.08L151.61,1086.08L151.589,1086.08L151.589,1106.08L151.61,1106.08Z"/>
                <path d="M171.61,1106.08L171.61,1086.08L171.589,1086.08L171.589,1106.08L171.61,1106.08Z"/>
                <path d="M151.6,1096.09L171.6,1096.09L171.6,1096.07L151.6,1096.07L151.6,1096.09Z"/>
            </g>
            <g id="A" transform="matrix(0.04,0,0,0.0400049,47.3647,1135.01)">
                <g transform="matrix(12.5,0,0,24.9961,605.002,-27070.4)">
                    <path d="M151.61,1106.08L151.61,1086.08L151.589,1086.08L151.589,1106.08L151.61,1106.08Z"/>
                </g>
                <g transform="matrix(7.65404e-16,12.5,-12.4985,7.6531e-16,16324.3,-1567.6)">
                    <path d="M151.61,1106.08L151.61,1086.08L151.589,1086.08L151.589,1106.08L151.61,1106.08Z"/>
                </g>
                <g transform="matrix(-8.83883,8.83883,-24.9969,-24.9969,31488.6,26386.1)">
                    <path d="M151.61,1106.08L151.61,1086.08L151.589,1086.08L151.589,1106.08L151.61,1106.08Z"/>
                </g>
            </g>
            <g id="R" transform="matrix(0.499922,0,0,0.499922,93.6631,617.064)">
                <path d="M127.434,1062.28L137.417,1072.26L137.432,1072.25L127.449,1062.27C127.449,1062.27 132.426,1062.27 132.426,1062.27C133.809,1062.27 135.061,1061.7 135.968,1060.8C136.875,1059.89 137.435,1058.64 137.435,1057.25L137.435,1057.25C137.435,1055.87 136.875,1054.62 135.968,1053.71C135.061,1052.8 133.809,1052.24 132.426,1052.24L127.423,1052.24C127.417,1052.24 127.413,1052.25 127.413,1052.25L127.413,1072.25L127.434,1072.25L127.434,1062.28ZM127.434,1062.24L132.426,1062.24C133.803,1062.24 135.05,1061.68 135.953,1060.78C136.856,1059.88 137.414,1058.63 137.414,1057.25C137.414,1057.25 137.414,1057.25 137.414,1057.25C137.414,1055.88 136.856,1054.63 135.953,1053.73C135.05,1052.82 133.803,1052.27 132.426,1052.27C132.426,1052.27 127.434,1052.27 127.434,1052.27L127.434,1062.24Z"/>
            </g>
            <g id="O" transform="matrix(1,0,0,1,19.9416,85.8528)">
                <path d="M147.429,1062.25C147.429,1059.49 146.309,1056.99 144.498,1055.18C142.688,1053.37 140.187,1052.25 137.424,1052.25L137.422,1052.25C134.659,1052.25 132.158,1053.37 130.348,1055.18C128.538,1056.99 127.418,1059.49 127.418,1062.25C127.418,1062.25 127.418,1062.25 127.418,1062.25C127.418,1065.02 128.538,1067.52 130.348,1069.33C132.158,1071.14 134.659,1072.26 137.422,1072.26L137.424,1072.26C140.187,1072.26 142.688,1071.14 144.498,1069.33C146.309,1067.52 147.429,1065.02 147.429,1062.25L147.429,1062.25ZM147.418,1062.25L147.418,1062.25C147.418,1065.01 146.299,1067.51 144.491,1069.32C142.682,1071.13 140.184,1072.25 137.424,1072.25C137.424,1072.25 137.422,1072.25 137.422,1072.25C134.662,1072.25 132.164,1071.13 130.356,1069.32C128.547,1067.51 127.429,1065.01 127.429,1062.25L127.429,1062.25C127.429,1059.49 128.547,1057 130.356,1055.19C132.164,1053.38 134.662,1052.26 137.422,1052.26C137.422,1052.26 137.424,1052.26 137.424,1052.26C140.184,1052.26 142.682,1053.38 144.491,1055.19C146.299,1057 147.418,1059.49 147.418,1062.25Z"/>
            </g>
            <g id="N" transform="matrix(1,0,0,1,-4.23507,52.0258)">
                <path d="M151.605,1106.08L151.605,1086.09C151.605,1086.09 171.596,1106.09 171.596,1106.09C171.598,1106.09 171.6,1106.09 171.602,1106.09C171.604,1106.09 171.605,1106.08 171.605,1106.08L171.605,1086.08L171.594,1086.08L171.594,1106.07C171.112,1105.59 151.604,1086.08 151.604,1086.08C151.602,1086.08 151.6,1086.08 151.598,1086.08C151.596,1086.08 151.594,1086.08 151.594,1086.08L151.594,1106.08L151.605,1106.08Z"/>
            </g>
            <g id="E" transform="matrix(1,0,0,1,-4.23507,52.0258)">
                <path d="M171.6,1106.08L151.605,1106.08C151.605,1106.08 151.605,1086.46 151.605,1086.09C151.976,1086.09 171.6,1086.09 171.6,1086.09L171.6,1086.08L151.6,1086.08C151.597,1086.08 151.594,1086.08 151.594,1086.08L151.594,1106.08C151.594,1106.09 151.597,1106.09 151.6,1106.09L171.6,1106.09L171.6,1106.08Z"/>
                <path d="M151.6,1096.09L161.6,1096.09L161.6,1096.08L151.6,1096.08L151.6,1096.09Z"/>
            </g>
        </g>
    </g>
</svg>
