<?xml version="1.0" encoding="UTF-8" standalone="no"?>
<!DOCTYPE svg PUBLIC "-//W3C//DTD SVG 1.1//EN" "http://www.w3.org/Graphics/SVG/1.1/DTD/svg11.dtd">
<svg width="100%" height="100%" viewBox="0 0 851 741" version="1.1" xmlns="http://www.w3.org/2000/svg" xmlns:xlink="http://www.w3.org/1999/xlink" xml:space="preserve" xmlns:serif="http://www.serif.com/" style="fill-rule:evenodd;clip-rule:evenodd;stroke-linejoin:round;stroke-miterlimit:2;">
    <g transform="matrix(1,0,0,1,-174.731,-79.5852)">
        <path d="M941.609,465.125C941.72,556.763 906.265,644.96 842.759,711.025C838.929,715.035 834.996,718.948 830.959,722.765C824.809,728.615 818.452,734.238 811.889,739.635C750.504,790.209 673.827,818.645 594.309,820.325C591.659,820.385 588.999,820.415 586.329,820.415C522.899,820.415 443.119,786.535 370.719,739.635C364.729,735.755 358.792,731.785 352.909,727.725C350.159,725.845 347.422,723.938 344.699,722.005C316.775,702.287 290.27,680.634 265.379,657.205C249.082,641.91 233.799,625.569 219.629,608.285C163.999,539.665 206.427,470.286 231.039,465.125C244.245,462.355 262.466,471.021 271.303,469.315C284.103,466.855 296.353,464.198 308.053,461.345C323.813,457.515 338.619,453.361 352.473,448.885C357.133,447.385 361.686,445.855 366.133,444.295C431.873,421.205 475.873,391.095 505.823,358.425C510.903,352.895 515.586,347.298 519.873,341.635C526.431,333.015 532.388,323.953 537.703,314.515C545.037,301.401 551.198,287.664 556.113,273.465L556.383,272.685C580.213,203.945 558.641,153.262 599.253,118.845C670.237,58.688 838.619,148.535 904.289,301.745C907.599,309.465 910.712,317.231 913.629,325.045C914.939,328.535 916.202,332.031 917.419,335.535C920.619,344.665 923.522,353.818 926.129,362.995C927.129,366.495 928.082,369.991 928.989,373.485C929.959,377.255 930.889,381.015 931.749,384.775C938.139,412.305 941.609,439.455 941.609,465.125Z" style="fill:rgb(195,219,230);fill-rule:nonzero;"/>
    </g>
    <g transform="matrix(1,0,0,1,-178.731,-79.5852)">
        <path d="M594.309,820.325C591.659,820.385 588.999,820.415 586.329,820.415C522.899,820.415 443.119,786.535 370.719,739.635C364.729,735.755 358.792,731.785 352.909,727.725L358.069,696.325L514.279,675.585L592.679,735.535L594.309,820.325Z" style="fill:rgb(43,49,51);fill-rule:nonzero;"/>
    </g>
    <path d="M336.095,660.051L335.475,660.051L336.005,659.981L336.095,660.051Z" style="fill:rgb(47,46,65);fill-rule:nonzero;"/>
    <circle cx="282.814" cy="176.733" r="68.322" style="fill:rgb(162,109,82);"/>
    <g transform="matrix(1,0,0,1,-174.731,-79.5852)">
        <path d="M517.377,206.226C517.377,206.226 535.246,172.065 495.933,168.959C495.933,168.959 462.418,138.557 428.257,163.401C428.257,163.401 409.624,163.401 399.435,184.487C399.435,184.487 384.78,178.929 381.559,193.803C381.559,193.803 370.836,224.859 381.559,252.809C392.283,280.759 395.845,283.864 395.845,283.864C395.845,283.864 378.224,225.266 421.115,222.16C464.005,219.054 512.001,192.251 515.576,226.412C519.15,260.572 524.529,268.989 524.529,268.989C524.529,268.989 558.479,220.201 517.377,206.226Z" style="fill:rgb(45,30,23);fill-rule:nonzero;"/>
    </g>
    <g transform="matrix(1,0,0,1,-174.731,-79.5852)">
        <path d="M634.279,424.695L634.059,425.855L631.589,438.895L614.519,529.095L613.509,534.405L611.389,545.635L608.489,560.955L602.059,594.905L600.219,604.635L599.529,608.285L599.289,609.565L597.379,619.635L596.799,622.675L592.139,657.205L588.069,687.295L601.689,700.915L593.569,709.035L588.239,739.565L588.249,739.635L370.719,739.635C361.919,733.935 353.246,728.058 344.699,722.005L346.489,708.605C346.489,708.605 352.649,684.675 350.059,681.815C347.479,678.955 341.819,673.845 341.819,673.845L348.949,657.205L349.939,654.895L348.279,620.465L348.239,619.635L347.689,608.285L347.619,606.825L347.509,604.635L345.399,560.955L345.359,560.235L344.719,546.995L344.119,534.405L343.859,529.095L341.289,475.965L339.549,439.885L338.029,408.475L344.139,406.405L409.489,384.195L436.559,349.005L492.899,349.425L520.479,349.635L566.499,392.315L576.969,397.315L577.049,397.355L584.559,400.945L603.599,410.035L623.729,419.655L634.059,424.585L634.279,424.695Z" style="fill:rgb(87,97,102);fill-rule:nonzero;"/>
    </g>
    <g transform="matrix(1,0,0,1,-174.731,-79.5852)">
        <path d="M443.84,637.136C440.351,638.488 436.641,639.181 432.899,639.181C418.469,639.181 405.945,628.868 403.176,614.706L296.617,599.588L333.66,557.686L429.171,578.467C430.449,578.303 431.736,578.222 433.024,578.222C449.729,578.222 463.474,591.967 463.474,608.672C463.474,621.288 455.633,632.655 443.84,637.136L443.84,637.136Z" style="fill:rgb(162,109,82);fill-rule:nonzero;"/>
    </g>
    <g transform="matrix(1,0,0,1,-174.731,-79.5852)">
        <path d="M396.329,560.955C394.356,558.453 391.56,556.727 388.439,556.085L344.719,546.995L340.229,546.065C334.954,544.964 330.392,541.662 327.699,536.995C326.317,534.571 325.481,531.875 325.249,529.095C325.041,526.567 325.343,524.023 326.139,521.615L341.289,475.965L351.119,446.345C352.31,442.772 353.013,439.055 353.209,435.295C353.757,424.89 350.535,414.629 344.139,406.405C332.623,391.6 312.637,386.038 295.129,392.765C294.879,392.855 294.619,392.955 294.369,393.055C281.945,398.016 272.558,408.552 269.059,421.465L258.379,460.315L236.349,540.405C234.978,545.392 234.284,550.541 234.284,555.713C234.284,584.867 256.354,609.683 285.309,613.085L348.279,620.465L377.419,623.885C384.369,624.72 390.874,620.017 392.259,613.155C392.306,612.974 392.343,612.79 392.369,612.605L393.069,608.285L398.999,571.905L399.059,571.535C399.683,567.783 398.691,563.936 396.329,560.955Z" style="fill:rgb(87,97,102);fill-rule:nonzero;"/>
    </g>
    <g transform="matrix(1,0,0,1,-174.731,-79.5852)">
        <path d="M511.714,638.302C513.959,638.824 516.257,639.087 518.562,639.087C534.588,639.087 547.982,626.367 548.808,610.362L652.17,580.368L609.588,544.109L517.962,578.15C501.428,578.392 487.957,592.061 487.957,608.597C487.957,622.785 497.873,635.184 511.714,638.302L511.714,638.302Z" style="fill:rgb(162,109,82);fill-rule:nonzero;"/>
    </g>
    <g transform="matrix(1,0,0,1,-174.731,-79.5852)">
        <path d="M703.489,513.275L654.329,400.135C650.309,390.848 643.124,383.281 634.059,378.785C631.256,377.405 628.312,376.332 625.279,375.585C624.809,375.465 624.339,375.355 623.869,375.265C617.437,373.861 610.765,373.984 604.389,375.625C592.607,378.651 582.657,386.56 577.049,397.355C577.019,397.399 576.992,397.446 576.969,397.495C570.69,409.642 570.552,424.08 576.599,436.345L577.209,437.565L611.949,507.335C613.249,509.949 613.926,512.83 613.926,515.749C613.926,523.692 608.919,530.825 601.449,533.525L599.009,534.405L555.129,550.255C548.327,552.682 544.617,560.16 546.799,567.045L546.909,567.395L559.209,606.755C559.269,606.935 559.329,607.115 559.399,607.295C559.507,607.634 559.641,607.965 559.799,608.285C562.488,614.315 569.232,617.527 575.609,615.815L599.289,609.565L604.119,608.285L665.269,592.135C690.536,585.458 708.273,562.425 708.273,536.291C708.273,528.372 706.644,520.538 703.489,513.275L703.489,513.275Z" style="fill:rgb(87,97,102);fill-rule:nonzero;"/>
    </g>
    <g transform="matrix(1,0,0,1,-174.731,-79.5852)">
        <path d="M219.629,608.285C233.799,625.569 249.082,641.91 265.379,657.205L717.349,657.205C726.355,657.219 733.76,664.629 733.769,673.635L734.419,788.165C762.224,775.39 788.262,759.079 811.889,739.635C818.449,734.245 824.806,728.621 830.959,722.765C834.989,718.945 838.922,715.031 842.759,711.025C871.522,681.06 894.815,646.287 911.579,608.285L219.629,608.285Z" style="fill:rgb(34,34,34);fill-rule:nonzero;"/>
    </g>
    <g transform="matrix(1,0,0,1,-174.731,-79.5852)">
        <path d="M842.759,711.025C838.929,715.035 834.996,718.948 830.959,722.765L734.749,722.765L734.749,711.025L842.759,711.025Z" style="fill:rgb(195,219,230);fill-rule:nonzero;"/>
    </g>
    <g transform="matrix(1,0,0,1,-174.731,-79.5852)">
        <path d="M633.379,335.535C632.412,333.75 630.539,332.635 628.509,332.635L300.669,332.635C297.629,332.643 295.132,335.145 295.129,338.185L295.129,534.405L634.059,534.405L634.059,338.185C634.064,337.258 633.83,336.345 633.379,335.535Z" style="fill:rgb(34,34,34);fill-rule:nonzero;"/>
    </g>
    <g transform="matrix(1,0,0,1,-174.731,-79.5852)">
        <path d="M294.832,529.092L294.832,553.306C294.832,557.5 298.283,560.95 302.476,560.95L427.573,560.95L427.573,608.737L425.911,608.737C425.366,608.737 424.918,609.185 424.918,609.73L424.918,613.053C424.918,613.598 425.366,614.046 425.911,614.046L503.569,614.046C504.114,614.046 504.562,613.598 504.562,613.053L504.562,609.73C504.562,609.185 504.114,608.737 503.569,608.737L501.907,608.737L501.907,560.95L627.004,560.95C631.197,560.95 634.648,557.5 634.648,553.306L634.648,529.092L294.832,529.092Z" style="fill:rgb(34,34,34);fill-rule:nonzero;"/>
    </g>
    <circle cx="285.903" cy="348.704" r="31.306" style="fill:rgb(195,219,230);"/>
    <g transform="matrix(1,0,0,1,-174.731,-79.5852)">
        <path d="M540.399,252.585L535.399,252.585C535.399,214.785 497.989,190.015 460.249,189.995C454.76,189.979 449.282,190.511 443.899,191.585C437.839,192.795 431.549,194.245 425.369,196.135C400.999,203.605 378.399,218.045 378.399,252.585C378.394,259.293 379.247,265.974 380.939,272.465L376.099,273.725C374.304,266.822 373.396,259.718 373.399,252.585C373.399,222.405 385.789,201.675 407.189,189.315C418.439,182.815 432.169,178.625 447.899,176.585C454.445,175.714 461.062,175.513 467.649,175.985C511.049,179.105 540.399,212.385 540.399,252.585Z" style="fill:rgb(195,219,230);fill-rule:nonzero;"/>
    </g>
    <g transform="matrix(1,0,0,1,-174.731,-79.5852)">
        <path d="M548.729,255.355L546.759,240.795C546.273,237.119 544.501,233.731 541.759,231.235C538.194,227.939 533.302,226.463 528.509,227.235L525.379,227.665C523.65,227.892 522.082,228.804 521.029,230.195C519.967,231.581 519.502,233.335 519.739,235.065L524.289,268.605C524.673,271.401 526.815,273.653 529.589,274.175C529.991,274.255 530.399,274.295 530.809,274.295C531.103,274.295 531.397,274.275 531.689,274.235L535.189,273.765C539.5,273.193 543.389,270.865 545.929,267.335C546.199,266.955 546.459,266.565 546.699,266.165C548.573,262.893 549.288,259.083 548.729,255.355Z" style="fill:rgb(195,219,230);fill-rule:nonzero;"/>
    </g>
    <g transform="matrix(1,0,0,1,-174.731,-79.5852)">
        <path d="M523.359,228.275C522.441,228.721 521.642,229.379 521.029,230.195C519.967,231.581 519.502,233.335 519.739,235.065L524.289,268.605C524.673,271.401 526.815,273.653 529.589,274.175L523.359,228.275Z" style="fill:white;fill-rule:nonzero;"/>
    </g>
    <g transform="matrix(1,0,0,1,-174.731,-79.5852)">
        <path d="M548.729,255.355L546.759,240.795C546.273,237.119 544.501,233.731 541.759,231.235L546.289,264.605C546.357,265.14 546.495,265.665 546.699,266.165C548.573,262.893 549.288,259.083 548.729,255.355Z" style="fill:rgb(63,61,86);fill-rule:nonzero;"/>
    </g>
    <g transform="matrix(0.990923,-0.134427,0.134427,0.990923,-204.705,-5.69071)">
        <ellipse cx="532.218" cy="258.909" rx="2.5" ry="7" style="fill:rgb(63,61,86);"/>
    </g>
    <g transform="matrix(0.990923,-0.134427,0.134427,0.990923,-202.312,-6.25736)">
        <ellipse cx="529.218" cy="240.909" rx="2.5" ry="7" style="fill:rgb(63,61,86);"/>
    </g>
    <g transform="matrix(0.990923,-0.134427,0.134427,0.990923,-203.081,-3.63971)">
        <ellipse cx="548.218" cy="247.909" rx="2.5" ry="7" style="fill:rgb(63,61,86);"/>
    </g>
    <g transform="matrix(1,0,0,1,-174.731,-79.5852)">
        <path d="M460.249,189.995C454.76,189.979 449.282,190.511 443.899,191.585C437.839,192.795 431.549,194.245 425.369,196.135C415.719,195.665 408.619,193.165 407.189,189.315C418.439,182.815 432.169,178.625 447.899,176.585C454.445,175.714 461.062,175.513 467.649,175.985C469.059,176.811 470.049,178.202 470.369,179.805C470.839,183.285 466.869,186.985 460.249,189.995Z" style="fill:rgb(34,34,34);fill-rule:nonzero;"/>
    </g>
    <g transform="matrix(1,0,0,1,-174.731,-79.5852)">
        <path d="M396.409,287.285L388.709,255.275C388.149,252.918 386.219,251.119 383.829,250.725C383.498,250.673 383.164,250.647 382.829,250.645C382.357,250.646 381.887,250.704 381.429,250.815L378.449,251.535C370.513,253.454 365.556,261.555 367.459,269.495L370.909,283.855C371.697,287.235 373.573,290.264 376.249,292.475C376.683,292.825 377.137,293.149 377.609,293.445C380.994,295.566 385.098,296.23 388.979,295.285L391.949,294.565C392.734,294.382 393.473,294.038 394.119,293.555C396.079,292.126 396.987,289.641 396.409,287.285Z" style="fill:rgb(195,219,230);fill-rule:nonzero;"/>
    </g>
    <g transform="matrix(0.972245,-0.233963,0.233963,0.972245,-228.451,16.6193)">
        <ellipse cx="378.629" cy="274.523" rx="2.5" ry="7" style="fill:rgb(63,61,86);"/>
    </g>
    <g transform="matrix(0.972245,-0.233963,0.233963,0.972245,-229.43,14.3629)">
        <ellipse cx="368.629" cy="277.523" rx="2.5" ry="7" style="fill:rgb(63,61,86);"/>
    </g>
    <g transform="matrix(1,0,0,1,-174.731,-79.5852)">
        <path d="M396.899,287.165L389.199,255.155C388.587,252.605 386.496,250.661 383.909,250.235L394.419,293.955C396.537,292.403 397.519,289.716 396.899,287.165Z" style="fill:white;fill-rule:nonzero;"/>
    </g>
    <g transform="matrix(1,0,0,1,-174.731,-79.5852)">
        <path d="M369.199,263.155C368.987,262.265 368.588,261.43 368.029,260.705C366.947,263.508 366.748,266.576 367.459,269.495L370.909,283.855C371.697,287.235 373.573,290.264 376.249,292.475L369.199,263.155Z" style="fill:rgb(63,61,86);fill-rule:nonzero;"/>
    </g>
</svg>
