<?xml version="1.0" encoding="UTF-8" standalone="no"?>
<!DOCTYPE svg PUBLIC "-//W3C//DTD SVG 1.1//EN" "http://www.w3.org/Graphics/SVG/1.1/DTD/svg11.dtd">
<svg width="100%" height="100%" viewBox="0 0 52 52" version="1.1" xmlns="http://www.w3.org/2000/svg" xmlns:xlink="http://www.w3.org/1999/xlink" xml:space="preserve" xmlns:serif="http://www.serif.com/" style="fill-rule:evenodd;clip-rule:evenodd;stroke-linejoin:round;stroke-miterlimit:2;">
    <g transform="matrix(1,0,0,1,-409,-574.011)">
        <g id="Mixed-Monogram-Sha" serif:id="Mixed Monogram Sha" transform="matrix(2.5,0,0,2.49969,41.5882,-2269.91)">
            <g id="S" transform="matrix(0.999844,0,0,0.999844,24.9619,86.0181)">
                <path d="M127.423,1072.65L132.405,1072.66C133.123,1072.66 133.827,1072.51 134.478,1072.25C135.13,1071.97 135.729,1071.58 136.237,1071.07C136.745,1070.56 137.142,1069.96 137.412,1069.31C137.681,1068.66 137.824,1067.96 137.824,1067.24C137.824,1067.24 137.824,1067.24 137.824,1067.24C137.824,1065.75 137.221,1064.4 136.247,1063.43C135.273,1062.46 133.927,1061.85 132.441,1061.85C132.441,1061.85 132.406,1061.85 132.406,1061.85C131.799,1061.85 131.203,1061.73 130.652,1061.51C130.102,1061.28 129.595,1060.94 129.166,1060.51C128.736,1060.08 128.4,1059.58 128.172,1059.02C127.944,1058.47 127.823,1057.88 127.823,1057.27C127.823,1057.27 127.823,1057.25 127.823,1057.25C127.823,1056.64 127.944,1056.05 128.173,1055.49C128.402,1054.94 128.739,1054.43 129.17,1054C129.602,1053.57 130.11,1053.23 130.662,1053C131.215,1052.78 131.812,1052.65 132.422,1052.65L137.423,1052.65L137.423,1051.85L132.422,1051.85C131.706,1051.85 131.005,1052 130.356,1052.27C129.707,1052.53 129.111,1052.93 128.605,1053.43C128.098,1053.94 127.703,1054.54 127.434,1055.19C127.165,1055.84 127.023,1056.54 127.023,1057.25C127.023,1057.25 127.023,1057.27 127.023,1057.27C127.023,1057.98 127.165,1058.68 127.433,1059.33C127.701,1059.98 128.095,1060.57 128.6,1061.08C129.105,1061.58 129.699,1061.98 130.346,1062.24C130.993,1062.51 131.692,1062.65 132.406,1062.65C132.406,1062.65 132.441,1062.65 132.441,1062.65C133.706,1062.65 134.852,1063.17 135.681,1064C136.511,1064.83 137.024,1065.97 137.024,1067.24C137.024,1067.24 137.024,1067.24 137.024,1067.24C137.024,1067.85 136.902,1068.45 136.672,1069.01C136.443,1069.56 136.104,1070.07 135.671,1070.5C135.238,1070.94 134.728,1071.28 134.173,1071.51C133.617,1071.74 133.017,1071.86 132.405,1071.86C132.405,1071.86 127.423,1071.85 127.423,1071.85L127.423,1072.65Z" style="fill:rgb(195,219,230);"/>
            </g>
            <g id="H" transform="matrix(0.5,0,0,0.5,71.5648,600.066)">
                <path d="M152.4,1106.08L152.4,1086.08L150.8,1086.08L150.8,1106.08L152.4,1106.08Z" style="fill:rgb(195,219,230);"/>
                <path d="M172.4,1106.08L172.4,1086.08L170.8,1086.08L170.8,1106.08L172.4,1106.08Z" style="fill:rgb(195,219,230);"/>
                <path d="M151.6,1096.88L171.6,1096.88L171.6,1095.28L151.6,1095.28L151.6,1096.88Z" style="fill:rgb(195,219,230);"/>
            </g>
            <g id="A" transform="matrix(0.04,0,0,0.0400049,47.3647,1135.01)">
                <g transform="matrix(12.5,0,0,24.9961,605.002,-27070.4)">
                    <path d="M152.4,1106.08L152.4,1086.08L150.8,1086.08L150.8,1106.08L152.4,1106.08Z" style="fill:rgb(195,219,230);"/>
                </g>
                <g transform="matrix(7.65404e-16,12.5,-12.4985,7.6531e-16,16324.3,-1567.6)">
                    <path d="M152.4,1106.08L152.4,1086.08L150.8,1086.08L150.8,1106.08L152.4,1106.08Z" style="fill:rgb(195,219,230);"/>
                </g>
                <g transform="matrix(-8.83883,8.83883,-24.9969,-24.9969,31488.6,26386.1)">
                    <path d="M152.4,1106.08L152.4,1086.08L150.8,1086.08L150.8,1106.08L152.4,1106.08Z" style="fill:rgb(195,219,230);"/>
                </g>
            </g>
            <g id="R" transform="matrix(0.499922,0,0,0.499922,93.6631,617.064)">
                <path d="M128.223,1064.19L136.859,1072.82L137.99,1071.69L129.355,1063.05C129.355,1063.05 132.426,1063.05 132.426,1063.05C133.195,1063.05 133.948,1062.9 134.645,1062.61C135.342,1062.32 135.982,1061.9 136.526,1061.36C137.07,1060.81 137.495,1060.17 137.783,1059.47C138.072,1058.78 138.225,1058.02 138.225,1057.25C138.225,1057.25 138.225,1057.25 138.225,1057.25C138.225,1056.49 138.072,1055.73 137.783,1055.03C137.495,1054.34 137.07,1053.7 136.526,1053.15C135.982,1052.61 135.342,1052.18 134.645,1051.89C133.948,1051.61 133.195,1051.45 132.426,1051.45L127.423,1051.45C126.981,1051.45 126.623,1051.81 126.623,1052.25L126.623,1072.25L128.223,1072.25L128.223,1064.19ZM128.223,1061.45L132.426,1061.45C132.982,1061.45 133.528,1061.34 134.032,1061.13C134.537,1060.92 135.001,1060.62 135.395,1060.22C135.788,1059.83 136.096,1059.37 136.305,1058.86C136.514,1058.36 136.625,1057.81 136.625,1057.25L136.625,1057.25C136.625,1056.7 136.514,1056.15 136.305,1055.65C136.096,1055.14 135.788,1054.68 135.395,1054.28C135.001,1053.89 134.537,1053.58 134.032,1053.37C133.528,1053.16 132.982,1053.05 132.426,1053.05C132.426,1053.05 128.223,1053.05 128.223,1053.05L128.223,1061.45Z" style="fill:rgb(195,219,230);"/>
            </g>
            <g id="O" transform="matrix(1,0,0,1,19.9416,85.8528)">
                <path d="M147.823,1062.25C147.823,1059.38 146.659,1056.78 144.778,1054.9C142.896,1053.02 140.296,1051.85 137.425,1051.85L137.422,1051.85C134.55,1051.85 131.951,1053.02 130.069,1054.9C128.187,1056.78 127.023,1059.38 127.023,1062.25L127.023,1062.25C127.023,1065.13 128.187,1067.73 130.069,1069.61C131.951,1071.49 134.55,1072.65 137.422,1072.65L137.425,1072.65C140.296,1072.65 142.896,1071.49 144.778,1069.61C146.659,1067.73 147.823,1065.13 147.823,1062.25L147.823,1062.25ZM147.023,1062.25L147.023,1062.25C147.023,1064.9 145.949,1067.31 144.212,1069.04C142.475,1070.78 140.075,1071.85 137.425,1071.85C137.425,1071.85 137.422,1071.85 137.422,1071.85C134.771,1071.85 132.371,1070.78 130.634,1069.04C128.898,1067.31 127.823,1064.9 127.823,1062.25C127.823,1062.25 127.823,1062.25 127.823,1062.25C127.823,1059.6 128.898,1057.2 130.634,1055.47C132.371,1053.73 134.771,1052.65 137.422,1052.65C137.422,1052.65 137.425,1052.65 137.425,1052.65C140.075,1052.65 142.475,1053.73 144.212,1055.47C145.949,1057.2 147.023,1059.6 147.023,1062.25Z" style="fill:rgb(195,219,230);"/>
            </g>
            <g id="N" transform="matrix(1,0,0,1,-4.23507,52.0258)">
                <path d="M152,1106.08L152,1087.05C152,1087.05 171.317,1106.36 171.317,1106.36C171.431,1106.48 171.603,1106.51 171.753,1106.45C171.902,1106.39 172,1106.24 172,1106.08L172,1086.08L171.2,1086.08L171.2,1105.12C171.2,1105.12 151.883,1085.8 151.883,1085.8C151.768,1085.68 151.596,1085.65 151.447,1085.71C151.297,1085.77 151.2,1085.92 151.2,1086.08L151.2,1106.08L152,1106.08Z" style="fill:rgb(195,219,230);"/>
            </g>
            <g id="E" transform="matrix(1,0,0,1,-4.23507,52.0258)">
                <path d="M171.6,1105.68L152,1105.68C152,1105.68 152,1086.48 152,1086.48C152,1086.48 171.6,1086.48 171.6,1086.48L171.6,1085.68L151.6,1085.68C151.379,1085.68 151.2,1085.86 151.2,1086.08L151.2,1106.08C151.2,1106.3 151.379,1106.48 151.6,1106.48L171.6,1106.48L171.6,1105.68Z" style="fill:rgb(195,219,230);"/>
                <path d="M151.6,1096.48L161.6,1096.48L161.6,1095.68L151.6,1095.68L151.6,1096.48Z" style="fill:rgb(195,219,230);"/>
            </g>
        </g>
    </g>
</svg>
