<?xml version="1.0" encoding="UTF-8" standalone="no"?>
<!DOCTYPE svg PUBLIC "-//W3C//DTD SVG 1.1//EN" "http://www.w3.org/Graphics/SVG/1.1/DTD/svg11.dtd">
<svg width="100%" height="100%" viewBox="0 0 507 507" version="1.1" xmlns="http://www.w3.org/2000/svg" xmlns:xlink="http://www.w3.org/1999/xlink" xml:space="preserve" xmlns:serif="http://www.serif.com/" style="fill-rule:evenodd;clip-rule:evenodd;stroke-linejoin:round;stroke-miterlimit:2;">
    <g transform="matrix(1,0,0,1,-3636.81,-3351.34)">
        <g id="monogram" transform="matrix(25,0,0,24.9969,-43.9802,-25094.5)">
            <g id="S" transform="matrix(0.999844,0,0,0.999844,24.9619,86.0181)">
                <path d="M127.423,1072.39L132.425,1072.39C133.105,1072.39 133.772,1072.26 134.389,1072C135.006,1071.75 135.573,1071.37 136.054,1070.89C136.535,1070.41 136.911,1069.84 137.167,1069.22C137.422,1068.61 137.557,1067.94 137.557,1067.26C137.557,1067.26 137.557,1067.25 137.557,1067.25C137.557,1065.83 136.983,1064.55 136.054,1063.62C135.126,1062.69 133.844,1062.12 132.427,1062.12L132.423,1062.12C131.079,1062.12 129.862,1061.58 128.982,1060.69C128.101,1059.82 127.557,1058.6 127.557,1057.25C127.557,1057.25 127.557,1057.25 127.557,1057.25C127.557,1055.91 128.101,1054.69 128.982,1053.81C129.862,1052.93 131.079,1052.39 132.423,1052.39C132.423,1052.39 137.423,1052.39 137.423,1052.39L137.423,1052.12L132.423,1052.12C131.005,1052.12 129.722,1052.69 128.793,1053.62C127.864,1054.55 127.29,1055.84 127.29,1057.25L127.29,1057.25C127.29,1058.67 127.864,1059.95 128.793,1060.88C129.722,1061.81 131.005,1062.39 132.423,1062.39L132.427,1062.39C133.77,1062.39 134.986,1062.93 135.866,1063.81C136.746,1064.69 137.29,1065.91 137.291,1067.25C137.291,1067.25 137.291,1067.26 137.291,1067.26C137.291,1067.9 137.163,1068.54 136.92,1069.12C136.678,1069.7 136.322,1070.24 135.866,1070.7C135.409,1071.15 134.872,1071.51 134.287,1071.75C133.702,1072 133.07,1072.12 132.425,1072.12C132.425,1072.12 127.423,1072.12 127.423,1072.12L127.423,1072.39Z"/>
            </g>
            <g id="H" transform="matrix(0.5,0,0,0.5,71.5648,600.066)">
                <path d="M151.866,1106.08L151.866,1086.08L151.333,1086.08L151.333,1106.08L151.866,1106.08Z"/>
                <path d="M171.866,1106.08L171.866,1086.08L171.333,1086.08L171.333,1106.08L171.866,1106.08Z"/>
                <path d="M151.6,1096.35L171.6,1096.35L171.6,1095.82L151.6,1095.82L151.6,1096.35Z"/>
            </g>
            <g id="A" transform="matrix(0.04,0,0,0.0400049,47.3647,1135.01)">
                <g transform="matrix(12.5,0,0,24.9961,605.002,-27070.4)">
                    <path d="M151.866,1106.08L151.866,1086.08L151.333,1086.08L151.333,1106.08L151.866,1106.08Z"/>
                </g>
                <g transform="matrix(7.65404e-16,12.5,-12.4985,7.6531e-16,16324.3,-1567.6)">
                    <path d="M151.866,1106.08L151.866,1086.08L151.333,1086.08L151.333,1106.08L151.866,1106.08Z"/>
                </g>
                <g transform="matrix(-8.83883,8.83883,-24.9969,-24.9969,31488.6,26386.1)">
                    <path d="M151.866,1106.08L151.866,1086.08L151.333,1086.08L151.333,1106.08L151.866,1106.08Z"/>
                </g>
            </g>
            <g id="R" transform="matrix(0.499922,0,0,0.499922,93.6631,617.064)">
                <path d="M127.69,1062.9L137.236,1072.44L137.613,1072.07L128.067,1062.52C128.067,1062.52 132.427,1062.52 132.427,1062.52C133.125,1062.52 133.809,1062.38 134.441,1062.12C135.074,1061.86 135.656,1061.47 136.149,1060.98C136.643,1060.49 137.029,1059.9 137.291,1059.27C137.553,1058.64 137.691,1057.95 137.691,1057.26C137.691,1057.26 137.691,1057.25 137.691,1057.25C137.691,1056.55 137.553,1055.87 137.291,1055.24C137.029,1054.61 136.643,1054.02 136.149,1053.53C135.656,1053.04 135.074,1052.65 134.441,1052.39C133.809,1052.13 133.125,1051.99 132.427,1051.99L127.423,1051.99C127.276,1051.99 127.156,1052.11 127.156,1052.25L127.156,1072.25L127.69,1072.25L127.69,1062.9ZM127.69,1061.99L132.427,1061.99C133.054,1061.99 133.669,1061.86 134.237,1061.63C134.806,1061.39 135.329,1061.05 135.772,1060.6C136.216,1060.16 136.562,1059.63 136.798,1059.07C137.033,1058.5 137.158,1057.88 137.158,1057.26L137.158,1057.25C137.158,1056.62 137.033,1056.01 136.798,1055.44C136.562,1054.87 136.216,1054.35 135.772,1053.91C135.329,1053.46 134.806,1053.12 134.237,1052.88C133.669,1052.64 133.054,1052.52 132.427,1052.52C132.427,1052.52 127.69,1052.52 127.69,1052.52L127.69,1061.99Z"/>
            </g>
            <g id="O" transform="matrix(1,0,0,1,19.9416,85.8528)">
                <path d="M147.557,1062.25C147.557,1060.91 147.29,1059.59 146.785,1058.38C146.281,1057.16 145.539,1056.04 144.589,1055.09C143.639,1054.14 142.52,1053.4 141.302,1052.89C140.085,1052.39 138.769,1052.12 137.425,1052.12C137.425,1052.12 137.421,1052.12 137.421,1052.12C136.078,1052.12 134.762,1052.39 133.544,1052.89C132.327,1053.4 131.207,1054.14 130.257,1055.09C129.307,1056.04 128.565,1057.16 128.061,1058.38C127.557,1059.59 127.29,1060.91 127.29,1062.25C127.29,1062.25 127.29,1062.26 127.29,1062.26C127.29,1063.6 127.557,1064.91 128.061,1066.13C128.565,1067.35 129.307,1068.47 130.257,1069.42C131.207,1070.37 132.327,1071.11 133.544,1071.62C134.762,1072.12 136.078,1072.39 137.421,1072.39C137.421,1072.39 137.425,1072.39 137.425,1072.39C138.769,1072.39 140.085,1072.12 141.302,1071.62C142.52,1071.11 143.639,1070.37 144.589,1069.42C145.539,1068.47 146.281,1067.35 146.785,1066.13C147.29,1064.91 147.557,1063.6 147.557,1062.26L147.557,1062.25ZM147.29,1062.25L147.29,1062.26C147.29,1063.56 147.03,1064.84 146.539,1066.03C146.048,1067.22 145.326,1068.31 144.401,1069.23C143.475,1070.16 142.386,1070.88 141.2,1071.37C140.015,1071.86 138.733,1072.12 137.425,1072.12L137.421,1072.12C136.113,1072.12 134.832,1071.86 133.646,1071.37C132.461,1070.88 131.371,1070.16 130.446,1069.23C129.521,1068.31 128.799,1067.22 128.307,1066.03C127.816,1064.84 127.557,1063.56 127.557,1062.26L127.557,1062.25C127.557,1060.94 127.816,1059.66 128.307,1058.48C128.799,1057.29 129.521,1056.2 130.446,1055.28C131.371,1054.35 132.461,1053.63 133.646,1053.14C134.832,1052.65 136.113,1052.39 137.421,1052.39L137.425,1052.39C138.733,1052.39 140.015,1052.65 141.2,1053.14C142.386,1053.63 143.475,1054.35 144.401,1055.28C145.326,1056.2 146.048,1057.29 146.539,1058.48C147.03,1059.66 147.29,1060.94 147.29,1062.25Z"/>
            </g>
            <g id="N" transform="matrix(1,0,0,1,-4.23507,52.0258)">
                <path d="M151.733,1106.08L151.733,1086.4C151.733,1086.4 171.506,1106.18 171.506,1106.18C171.544,1106.21 171.601,1106.23 171.651,1106.2C171.701,1106.18 171.733,1106.14 171.733,1106.08L171.733,1086.08L171.466,1086.08L171.466,1105.76C171.466,1105.76 151.694,1085.99 151.694,1085.99C151.656,1085.95 151.599,1085.94 151.549,1085.96C151.499,1085.98 151.466,1086.03 151.466,1086.08L151.466,1106.08L151.733,1106.08Z"/>
            </g>
            <g id="E" transform="matrix(1,0,0,1,-4.23507,52.0258)">
                <path d="M171.6,1105.95L151.733,1105.95C151.733,1105.95 151.733,1086.21 151.733,1086.21C153.47,1086.21 171.6,1086.21 171.6,1086.21L171.6,1085.95L151.6,1085.95C151.526,1085.95 151.466,1086.01 151.466,1086.08L151.466,1106.08C151.466,1106.15 151.526,1106.21 151.6,1106.21L171.6,1106.21L171.6,1105.95Z"/>
                <path d="M151.6,1096.21L161.6,1096.21L161.6,1095.95L151.6,1095.95L151.6,1096.21Z"/>
            </g>
        </g>
    </g>
</svg>
