<?xml version="1.0" encoding="UTF-8" standalone="no"?>
<!DOCTYPE svg PUBLIC "-//W3C//DTD SVG 1.1//EN" "http://www.w3.org/Graphics/SVG/1.1/DTD/svg11.dtd">
<svg width="100%" height="100%" viewBox="0 0 1275 257" version="1.1" xmlns="http://www.w3.org/2000/svg" xmlns:xlink="http://www.w3.org/1999/xlink" xml:space="preserve" xmlns:serif="http://www.serif.com/" style="fill-rule:evenodd;clip-rule:evenodd;stroke-linejoin:round;stroke-miterlimit:2;">
    <g transform="matrix(1,0,0,1,-2421.68,-969.212)">
        <g id="sharone" transform="matrix(25,0,0,24.9969,-1124.12,-27609.2)">
            <g id="S" transform="matrix(0.499922,0,0,0.499922,78.2635,617.365)">
                <path d="M127.423,1072.52L132.358,1072.52C133.065,1072.52 133.758,1072.38 134.399,1072.12C135.04,1071.85 135.629,1071.46 136.129,1070.96C136.629,1070.46 137.019,1069.87 137.285,1069.23C137.55,1068.59 137.691,1067.9 137.691,1067.19C137.691,1067.19 137.691,1067.18 137.691,1067.18C137.69,1065.74 137.109,1064.45 136.17,1063.51C135.231,1062.57 133.933,1061.99 132.5,1061.99C132.5,1061.99 132.423,1061.99 132.423,1061.99C131.116,1061.99 129.932,1061.46 129.076,1060.6C128.22,1059.74 127.69,1058.56 127.69,1057.25C127.69,1057.25 127.69,1057.25 127.69,1057.25C127.69,1055.95 128.22,1054.76 129.076,1053.91C129.932,1053.05 131.116,1052.52 132.423,1052.52L137.423,1052.52L137.423,1051.99L132.423,1051.99C130.968,1051.99 129.652,1052.58 128.699,1053.53C127.746,1054.48 127.156,1055.8 127.156,1057.25L127.156,1057.25C127.156,1058.71 127.746,1060.03 128.699,1060.98C129.652,1061.93 130.968,1062.52 132.423,1062.52C132.423,1062.52 132.5,1062.52 132.5,1062.52C133.786,1062.52 134.95,1063.04 135.793,1063.88C136.636,1064.73 137.157,1065.89 137.157,1067.18C137.157,1067.18 137.157,1067.19 137.157,1067.19C137.157,1067.83 137.031,1068.45 136.792,1069.03C136.553,1069.61 136.202,1070.13 135.752,1070.59C135.302,1071.04 134.772,1071.39 134.195,1071.62C133.618,1071.86 132.995,1071.99 132.358,1071.99C132.358,1071.99 127.423,1071.99 127.423,1071.99L127.423,1072.52Z"/>
            </g>
            <g id="H" transform="matrix(0.25,0,0,0.5,110.015,600.369)">
                <path d="M152.133,1106.08L152.133,1086.08L151.067,1086.08L151.067,1106.08L152.133,1106.08Z"/>
                <path d="M172.133,1106.08L172.133,1086.08L171.067,1086.08L171.067,1106.08L172.133,1106.08Z"/>
                <path d="M151.6,1096.35L171.6,1096.35L171.6,1095.82L151.6,1095.82L151.6,1096.35Z"/>
            </g>
            <g id="A" transform="matrix(0.0200025,0,0,0.0200025,103.859,1141.86)">
                <g transform="matrix(12.5,0,0,24.9961,605.002,-27070.4)">
                    <path d="M152.133,1106.08L152.133,1086.08L151.067,1086.08L151.067,1106.08L152.133,1106.08Z"/>
                </g>
                <g transform="matrix(7.65404e-16,12.5,-12.4985,7.6531e-16,16324.3,-1567.6)">
                    <path d="M152.133,1106.08L152.133,1086.08L151.067,1086.08L151.067,1106.08L152.133,1106.08Z"/>
                </g>
                <g transform="matrix(-8.83883,8.83883,-24.9969,-24.9969,31488.6,26386.1)">
                    <path d="M152.133,1106.08L152.133,1086.08L151.067,1086.08L151.067,1106.08L152.133,1106.08Z"/>
                </g>
            </g>
            <g id="R" transform="matrix(0.499922,0,0,0.499922,101.113,617.367)">
                <path d="M127.69,1062.9L137.236,1072.44L137.613,1072.07L128.067,1062.52C128.067,1062.52 132.427,1062.52 132.427,1062.52C133.125,1062.52 133.809,1062.38 134.441,1062.12C135.074,1061.86 135.656,1061.47 136.149,1060.98C136.643,1060.49 137.029,1059.9 137.291,1059.27C137.553,1058.64 137.691,1057.95 137.691,1057.26C137.691,1057.26 137.691,1057.25 137.691,1057.25C137.691,1056.55 137.553,1055.87 137.291,1055.24C137.029,1054.61 136.643,1054.02 136.149,1053.53C135.656,1053.04 135.074,1052.65 134.441,1052.39C133.809,1052.13 133.125,1051.99 132.427,1051.99L127.423,1051.99C127.276,1051.99 127.156,1052.11 127.156,1052.25L127.156,1072.25L127.69,1072.25L127.69,1062.9ZM127.69,1061.99L132.427,1061.99C133.054,1061.99 133.669,1061.86 134.237,1061.63C134.806,1061.39 135.329,1061.05 135.772,1060.6C136.216,1060.16 136.562,1059.63 136.798,1059.07C137.033,1058.5 137.158,1057.88 137.158,1057.26L137.158,1057.25C137.158,1056.62 137.033,1056.01 136.798,1055.44C136.562,1054.87 136.216,1054.35 135.772,1053.91C135.329,1053.46 134.806,1053.12 134.237,1052.88C133.669,1052.64 133.054,1052.52 132.427,1052.52C132.427,1052.52 127.69,1052.52 127.69,1052.52L127.69,1061.99Z"/>
            </g>
            <g id="O" transform="matrix(0.5,0,0,0.5,107.053,617.283)">
                <path d="M147.69,1062.25C147.69,1059.42 146.541,1056.85 144.683,1054.99C142.826,1053.14 140.259,1051.99 137.424,1051.99L137.422,1051.99C134.587,1051.99 132.021,1053.14 130.163,1054.99C128.306,1056.85 127.157,1059.42 127.157,1062.25C127.157,1062.25 127.157,1062.25 127.157,1062.25C127.157,1065.09 128.306,1067.66 130.163,1069.51C132.021,1071.37 134.587,1072.52 137.422,1072.52L137.424,1072.52C140.259,1072.52 142.826,1071.37 144.683,1069.51C146.541,1067.66 147.69,1065.09 147.69,1062.25L147.69,1062.25ZM147.157,1062.25L147.157,1062.25C147.157,1064.94 146.067,1067.38 144.306,1069.14C142.545,1070.9 140.112,1071.99 137.424,1071.99C137.424,1071.99 137.422,1071.99 137.422,1071.99C134.734,1071.99 132.301,1070.9 130.54,1069.14C128.779,1067.38 127.69,1064.94 127.69,1062.25L127.69,1062.25C127.69,1059.57 128.779,1057.13 130.54,1055.37C132.301,1053.61 134.734,1052.52 137.422,1052.52C137.422,1052.52 137.424,1052.52 137.424,1052.52C140.112,1052.52 142.545,1053.61 144.306,1055.37C146.067,1057.13 147.157,1059.57 147.157,1062.25Z"/>
            </g>
            <g id="N" transform="matrix(0.25,0,0,0.5,143.815,600.369)">
                <path d="M152.133,1106.08L152.133,1087.21C156.196,1091.27 171.123,1106.2 171.123,1106.2C171.233,1106.31 171.482,1106.37 171.722,1106.34C171.963,1106.31 172.133,1106.2 172.133,1106.08L172.133,1086.08L171.067,1086.08L171.067,1104.95C171.067,1104.95 152.077,1085.96 152.077,1085.96C151.966,1085.85 151.718,1085.79 151.477,1085.82C151.237,1085.85 151.067,1085.96 151.067,1086.08L151.067,1106.08L152.133,1106.08Z"/>
            </g>
            <g id="E" transform="matrix(0.25,0,0,0.5,149.765,600.369)">
                <path d="M171.6,1105.82L152.133,1105.82C152.133,1105.82 152.133,1086.35 152.133,1086.35C152.133,1086.35 171.6,1086.35 171.6,1086.35L171.6,1085.82L151.6,1085.82C151.305,1085.82 151.067,1085.93 151.067,1086.08L151.067,1106.08C151.067,1106.23 151.305,1106.35 151.6,1106.35L171.6,1106.35L171.6,1105.82Z"/>
                <path d="M151.6,1096.35L161.6,1096.35L161.6,1095.82L151.6,1095.82L151.6,1096.35Z"/>
            </g>
        </g>
    </g>
</svg>
