<?xml version="1.0" encoding="UTF-8" standalone="no"?>
<!DOCTYPE svg PUBLIC "-//W3C//DTD SVG 1.1//EN" "http://www.w3.org/Graphics/SVG/1.1/DTD/svg11.dtd">
<svg width="100%" height="100%" viewBox="0 0 254 254" version="1.1" xmlns="http://www.w3.org/2000/svg" xmlns:xlink="http://www.w3.org/1999/xlink" xml:space="preserve" xmlns:serif="http://www.serif.com/" style="fill-rule:evenodd;clip-rule:evenodd;stroke-linejoin:round;stroke-miterlimit:2;">
    <g transform="matrix(1,0,0,1,-3178.33,-368.333)">
        <g id="Mixed-Monogram-Sha" serif:id="Mixed Monogram Sha" transform="matrix(12.5,0,0,12.4985,1337.94,-13854.6)">
            <g id="S" transform="matrix(0.999844,0,0,0.999844,24.9619,86.0181)">
                <path d="M127.423,1072.39L132.358,1072.39C133.047,1072.39 133.723,1072.25 134.348,1072C134.973,1071.74 135.547,1071.36 136.035,1070.87C136.522,1070.38 136.903,1069.81 137.162,1069.18C137.421,1068.56 137.557,1067.88 137.557,1067.19C137.557,1067.19 137.557,1067.18 137.557,1067.18C137.557,1065.78 136.991,1064.52 136.076,1063.6C135.161,1062.69 133.896,1062.12 132.5,1062.12C132.5,1062.12 132.423,1062.12 132.423,1062.12C131.079,1062.12 129.862,1061.58 128.982,1060.69C128.101,1059.82 127.557,1058.6 127.557,1057.25C127.557,1057.25 127.557,1057.25 127.557,1057.25C127.557,1055.91 128.101,1054.69 128.982,1053.81C129.862,1052.93 131.079,1052.39 132.423,1052.39L137.423,1052.39L137.423,1052.12L132.423,1052.12C131.005,1052.12 129.722,1052.69 128.793,1053.62C127.864,1054.55 127.29,1055.84 127.29,1057.25L127.29,1057.25C127.29,1058.67 127.864,1059.95 128.793,1060.88C129.722,1061.81 131.005,1062.39 132.423,1062.39C132.423,1062.39 132.5,1062.39 132.5,1062.39C133.823,1062.39 135.02,1062.92 135.887,1063.79C136.754,1064.66 137.29,1065.86 137.291,1067.18C137.291,1067.18 137.291,1067.19 137.291,1067.19C137.291,1067.85 137.161,1068.49 136.915,1069.08C136.67,1069.67 136.309,1070.22 135.846,1070.68C135.384,1071.14 134.839,1071.5 134.246,1071.75C133.653,1071.99 133.012,1072.12 132.358,1072.12C132.358,1072.12 127.423,1072.12 127.423,1072.12L127.423,1072.39Z"/>
            </g>
            <g id="H" transform="matrix(0.5,0,0,0.5,71.5648,600.066)">
                <path d="M151.866,1106.08L151.866,1086.08L151.333,1086.08L151.333,1106.08L151.866,1106.08Z"/>
                <path d="M171.866,1106.08L171.866,1086.08L171.333,1086.08L171.333,1106.08L171.866,1106.08Z"/>
                <path d="M151.6,1096.35L171.6,1096.35L171.6,1095.82L151.6,1095.82L151.6,1096.35Z"/>
            </g>
            <g id="A" transform="matrix(0.04,0,0,0.0400049,47.3647,1135.01)">
                <g transform="matrix(12.5,0,0,24.9961,605.002,-27070.4)">
                    <path d="M151.866,1106.08L151.866,1086.08L151.333,1086.08L151.333,1106.08L151.866,1106.08Z"/>
                </g>
                <g transform="matrix(7.65404e-16,12.5,-12.4985,7.6531e-16,16324.3,-1567.6)">
                    <path d="M151.866,1106.08L151.866,1086.08L151.333,1086.08L151.333,1106.08L151.866,1106.08Z"/>
                </g>
                <g transform="matrix(-8.83883,8.83883,-24.9969,-24.9969,31488.6,26386.1)">
                    <path d="M151.866,1106.08L151.866,1086.08L151.333,1086.08L151.333,1106.08L151.866,1106.08Z"/>
                </g>
            </g>
            <g id="R" transform="matrix(0.499922,0,0,0.499922,93.6631,617.064)">
                <path d="M127.69,1062.9L137.236,1072.44L137.613,1072.07L128.067,1062.52C128.067,1062.52 132.426,1062.52 132.426,1062.52C133.88,1062.52 135.196,1061.93 136.149,1060.98C137.102,1060.03 137.691,1058.71 137.691,1057.25L137.691,1057.25C137.691,1055.8 137.102,1054.48 136.149,1053.53C135.196,1052.58 133.88,1051.99 132.426,1051.99L127.423,1051.99C127.276,1051.99 127.156,1052.11 127.156,1052.25L127.156,1072.25L127.69,1072.25L127.69,1062.9ZM127.69,1061.99L132.426,1061.99C133.732,1061.99 134.916,1061.46 135.772,1060.6C136.628,1059.74 137.158,1058.56 137.158,1057.25C137.158,1057.25 137.158,1057.25 137.158,1057.25C137.158,1055.95 136.628,1054.76 135.772,1053.91C134.916,1053.05 133.732,1052.52 132.426,1052.52C132.426,1052.52 127.69,1052.52 127.69,1052.52L127.69,1061.99Z"/>
            </g>
            <g id="O" transform="matrix(1,0,0,1,19.9416,85.8528)">
                <path d="M147.557,1062.25C147.557,1059.46 146.422,1056.92 144.589,1055.09C142.755,1053.26 140.222,1052.12 137.424,1052.12L137.422,1052.12C134.624,1052.12 132.091,1053.26 130.257,1055.09C128.424,1056.92 127.29,1059.46 127.29,1062.25C127.29,1062.25 127.29,1062.25 127.29,1062.25C127.29,1065.05 128.424,1067.59 130.257,1069.42C132.091,1071.25 134.624,1072.39 137.422,1072.39L137.424,1072.39C140.222,1072.39 142.755,1071.25 144.589,1069.42C146.422,1067.59 147.557,1065.05 147.557,1062.25L147.557,1062.25ZM147.29,1062.25L147.29,1062.25C147.29,1064.98 146.186,1067.44 144.4,1069.23C142.615,1071.02 140.149,1072.12 137.424,1072.12C137.424,1072.12 137.422,1072.12 137.422,1072.12C134.698,1072.12 132.231,1071.02 130.446,1069.23C128.661,1067.44 127.557,1064.98 127.557,1062.25L127.557,1062.25C127.557,1059.53 128.661,1057.06 130.446,1055.28C132.231,1053.49 134.698,1052.39 137.422,1052.39C137.422,1052.39 137.424,1052.39 137.424,1052.39C140.149,1052.39 142.615,1053.49 144.4,1055.28C146.186,1057.06 147.29,1059.53 147.29,1062.25Z"/>
            </g>
            <g id="N" transform="matrix(1,0,0,1,-4.23507,52.0258)">
                <path d="M151.733,1106.08L151.733,1086.4C153.943,1088.61 171.506,1106.18 171.506,1106.18C171.544,1106.21 171.601,1106.23 171.651,1106.2C171.701,1106.18 171.733,1106.14 171.733,1106.08L171.733,1086.08L171.466,1086.08L171.466,1105.76C171.466,1105.76 151.694,1085.99 151.694,1085.99C151.656,1085.95 151.599,1085.94 151.549,1085.96C151.499,1085.98 151.466,1086.03 151.466,1086.08L151.466,1106.08L151.733,1106.08Z"/>
            </g>
            <g id="E" transform="matrix(1,0,0,1,-4.23507,52.0258)">
                <path d="M171.6,1105.95L151.733,1105.95C151.733,1105.95 151.733,1086.21 151.733,1086.21C151.733,1086.21 171.6,1086.21 171.6,1086.21L171.6,1085.95L151.6,1085.95C151.526,1085.95 151.466,1086.01 151.466,1086.08L151.466,1106.08C151.466,1106.15 151.526,1106.21 151.6,1106.21L171.6,1106.21L171.6,1105.95Z"/>
                <path d="M151.6,1096.21L161.6,1096.21L161.6,1095.95L151.6,1095.95L151.6,1096.21Z"/>
            </g>
        </g>
    </g>
</svg>
