<?xml version="1.0" encoding="UTF-8" standalone="no"?>
<!DOCTYPE svg PUBLIC "-//W3C//DTD SVG 1.1//EN" "http://www.w3.org/Graphics/SVG/1.1/DTD/svg11.dtd">
<svg width="100%" height="100%" viewBox="0 0 256 162" version="1.1" xmlns="http://www.w3.org/2000/svg" xmlns:xlink="http://www.w3.org/1999/xlink" xml:space="preserve" xmlns:serif="http://www.serif.com/" style="fill-rule:evenodd;clip-rule:evenodd;stroke-linejoin:round;stroke-miterlimit:2;">
    <g>
        <path d="M256,138.739C122.161,156.23 26.633,177.239 25.22,91.006C25.22,91.006 28.141,57.594 69.122,55.49C69.122,55.49 70.503,25.814 101.812,22.454C118.644,20.632 137.768,37.967 139.841,56.212C139.841,56.212 181.261,48.55 183.051,88.934C183.679,103.002 180.507,126.931 140.563,125.895C140.563,125.895 117.451,122.755 114.31,87.018C107.81,156.199 207.828,152.179 209.273,89.342C209.901,62.178 192.503,34.23 153.313,39.474C131.833,-14.57 74.648,-11.461 53.357,38.658C22.928,38.658 -0.342,62.084 0.004,92.671C1.166,191.119 138.176,161.443 256,138.739Z" style="fill:rgb(36,51,155);fill-rule:nonzero;"/>
    </g>
</svg>
