<?xml version="1.0" encoding="UTF-8" standalone="no"?>
<!DOCTYPE svg PUBLIC "-//W3C//DTD SVG 1.1//EN" "http://www.w3.org/Graphics/SVG/1.1/DTD/svg11.dtd">
<svg width="100%" height="100%" viewBox="0 0 45 38" version="1.1" xmlns="http://www.w3.org/2000/svg" xmlns:xlink="http://www.w3.org/1999/xlink" xml:space="preserve" xmlns:serif="http://www.serif.com/" style="fill-rule:evenodd;clip-rule:evenodd;stroke-linejoin:round;stroke-miterlimit:2;">
    <g transform="matrix(1,0,0,1,-0.999993,-4.99952)">
        <path d="M39,16C35.612,13.527 26.115,5.591 26.115,5.591C25.06,4.699 23.483,4.831 22.592,5.885C21.699,6.939 21.831,8.516 22.885,9.408L28.311,14L9.5,14C8.119,14 7,15.119 7,16.5C7,17.881 8.119,19 9.5,19L18.287,19L1.978,31.517C0.883,32.358 0.676,33.927 1.517,35.022C2.009,35.664 2.751,36 3.502,36C4.033,36 4.568,35.832 5.023,35.483L15.019,27.811C15.016,27.927 15,28.038 15,28.154C15,35.971 21.532,42 30,42C38.468,42 45.667,35.971 45.667,28.154C45.667,23.275 42.876,18.83 39,16Z" style="fill:url(#_Linear1);fill-rule:nonzero;"/>
        <ellipse cx="30.5" cy="27" rx="9.75" ry="9" style="fill:white;"/>
        <path d="M30.5,18C35.885,18 40.25,22.029 40.25,27C40.25,31.971 35.885,36 30.5,36C25.115,36 20.75,31.971 20.75,27C20.75,22.029 25.115,18 30.5,18M30.5,17.5C24.848,17.5 20.25,21.762 20.25,27C20.25,32.238 24.848,36.5 30.5,36.5C36.152,36.5 40.75,32.238 40.75,27C40.75,21.762 36.152,17.5 30.5,17.5Z" style="fill-opacity:0.07;fill-rule:nonzero;"/>
        <path d="M30.5,17.5C36.152,17.5 40.75,21.762 40.75,27C40.75,32.238 36.152,36.5 30.5,36.5C24.848,36.5 20.25,32.238 20.25,27C20.25,21.762 24.848,17.5 30.5,17.5M30.5,17C24.572,17 19.75,21.486 19.75,27C19.75,32.514 24.572,37 30.5,37C36.428,37 41.25,32.514 41.25,27C41.25,21.486 36.428,17 30.5,17Z" style="fill-opacity:0.05;fill-rule:nonzero;"/>
        <ellipse cx="30.5" cy="27" rx="5.5" ry="5" style="fill:rgb(3,112,200);"/>
        <path d="M30.5,21.5C33.808,21.5 36.5,23.967 36.5,27C36.5,30.033 33.808,32.5 30.5,32.5C27.192,32.5 24.5,30.033 24.5,27C24.5,23.967 27.192,21.5 30.5,21.5M30.5,21C26.916,21 24,23.692 24,27C24,30.308 26.916,33 30.5,33C34.084,33 37,30.308 37,27C37,23.692 34.084,21 30.5,21Z" style="fill-opacity:0.05;fill-rule:nonzero;"/>
        <path d="M30.5,22C33.538,22 36,24.239 36,27C36,29.761 33.538,32 30.5,32C27.462,32 25,29.761 25,27C25,24.239 27.462,22 30.5,22M30.5,21.5C27.192,21.5 24.5,23.967 24.5,27C24.5,30.033 27.192,32.5 30.5,32.5C33.808,32.5 36.5,30.033 36.5,27C36.5,23.967 33.808,21.5 30.5,21.5Z" style="fill-opacity:0.07;fill-rule:nonzero;"/>
    </g>
    <defs>
        <linearGradient id="_Linear1" x1="0" y1="0" x2="1" y2="0" gradientUnits="userSpaceOnUse" gradientTransform="matrix(44.667,0,0,44.667,1,23.5)"><stop offset="0" style="stop-color:rgb(255,164,2);stop-opacity:1"/><stop offset="1" style="stop-color:rgb(255,136,0);stop-opacity:1"/></linearGradient>
    </defs>
</svg>
